<svg xmlns="http://www.w3.org/2000/svg" viewBox="0 0 13 12" shape-rendering="crispEdges" fill="#000"><rect x="4" y="0" width="5" height="1"/><rect x="4" y="1" width="1" height="1"/><rect x="8" y="1" width="1" height="1"/><rect x="4" y="2" width="1" height="1"/><rect x="8" y="2" width="5" height="1"/><rect x="4" y="3" width="1" height="1"/><rect x="8" y="3" width="1" height="1"/><rect x="12" y="3" width="1" height="1"/><rect x="0" y="4" width="5" height="1"/><rect x="8" y="4" width="1" height="1"/><rect x="12" y="4" width="1" height="1"/><rect x="0" y="5" width="1" height="1"/><rect x="4" y="5" width="1" height="1"/><rect x="8" y="5" width="1" height="1"/><rect x="12" y="5" width="1" height="1"/><rect x="0" y="6" width="1" height="1"/><rect x="4" y="6" width="1" height="1"/><rect x="8" y="6" width="1" height="1"/><rect x="12" y="6" width="1" height="1"/><rect x="0" y="7" width="1" height="1"/><rect x="4" y="7" width="1" height="1"/><rect x="8" y="7" width="1" height="1"/><rect x="12" y="7" width="1" height="1"/><rect x="0" y="8" width="1" height="1"/><rect x="4" y="8" width="1" height="1"/><rect x="8" y="8" width="1" height="1"/><rect x="12" y="8" width="1" height="1"/><rect x="0" y="9" width="1" height="1"/><rect x="4" y="9" width="1" height="1"/><rect x="8" y="9" width="1" height="1"/><rect x="12" y="9" width="1" height="1"/><rect x="0" y="10" width="1" height="1"/><rect x="4" y="10" width="1" height="1"/><rect x="8" y="10" width="1" height="1"/><rect x="12" y="10" width="1" height="1"/><rect x="0" y="11" width="13" height="1"/></svg>