<svg xmlns="http://www.w3.org/2000/svg" viewBox="0 0 16 10" shape-rendering="crispEdges" fill="#000"><rect x="3" y="0" width="8" height="1"/><rect x="2" y="1" width="2" height="1"/><rect x="10" y="1" width="2" height="1"/><rect x="1" y="2" width="2" height="1"/><rect x="4" y="2" width="2" height="1"/><rect x="8" y="2" width="2" height="1"/><rect x="11" y="2" width="2" height="1"/><rect x="0" y="3" width="2" height="1"/><rect x="3" y="3" width="3" height="1"/><rect x="8" y="3" width="3" height="1"/><rect x="12" y="3" width="3" height="1"/><rect x="0" y="4" width="1" height="1"/><rect x="14" y="4" width="2" height="1"/><rect x="0" y="5" width="1" height="1"/><rect x="15" y="5" width="1" height="1"/><rect x="0" y="6" width="1" height="1"/><rect x="2" y="6" width="2" height="1"/><rect x="12" y="6" width="2" height="1"/><rect x="15" y="6" width="1" height="1"/><rect x="0" y="7" width="2" height="1"/><rect x="4" y="7" width="1" height="1"/><rect x="11" y="7" width="1" height="1"/><rect x="14" y="7" width="2" height="1"/><rect x="1" y="8" width="1" height="1"/><rect x="4" y="8" width="8" height="1"/><rect x="14" y="8" width="1" height="1"/><rect x="1" y="9" width="4" height="1"/><rect x="11" y="9" width="4" height="1"/></svg>