<svg xmlns="http://www.w3.org/2000/svg" viewBox="0 0 16 16" shape-rendering="crispEdges" fill="currentColor"><rect x="7" y="1" width="2" height="1"/><rect x="6" y="2" width="3" height="1"/><rect x="5" y="3" width="4" height="1"/><rect x="5" y="4" width="1" height="2"/><rect x="8" y="4" width="1" height="1"/><rect x="4" y="5" width="2" height="1"/><rect x="7" y="5" width="3" height="1"/><rect x="4" y="6" width="1" height="3"/><rect x="6" y="6" width="1" height="1"/><rect x="9" y="6" width="2" height="1"/><rect x="3" y="7" width="1" height="4"/><rect x="7" y="7" width="1" height="1"/><rect x="10" y="7" width="2" height="1"/><rect x="11" y="8" width="1" height="3"/><rect x="5" y="8" width="1" height="1"/><rect x="8" y="8" width="1" height="1"/><rect x="5" y="9" width="2" height="1"/><rect x="9" y="9" width="2" height="1"/><rect x="4" y="11" width="1" height="2"/><rect x="5" y="10" width="2" height="3"/><rect x="9" y="10" width="2" height="3"/><rect x="10" y="11" width="1" height="2"/><rect x="7" y="11" width="2" height="2"/><rect x="5" y="13" width="6" height="1"/></svg>
